<svg xmlns="http://www.w3.org/2000/svg" viewBox="0 0 64 64" fill="white">
  <!-- Java coffee cup -->
  <!-- Steam lines -->
  <path d="M22 6c0 0 2-4 0-6" stroke="white" stroke-width="2" fill="none" stroke-linecap="round"/>
  <path d="M28 4c0 0 2-4 0-6" stroke="white" stroke-width="2" fill="none" stroke-linecap="round" transform="translate(0,2)"/>
  <path d="M34 6c0 0 2-4 0-6" stroke="white" stroke-width="2" fill="none" stroke-linecap="round"/>
  <!-- Cup body -->
  <path d="M14 14h30v22c0 6-6 10-15 10s-15-4-15-10V14z"/>
  <!-- Handle -->
  <path d="M44 18h4c4 0 6 3 6 7s-2 7-6 7h-4" stroke="white" stroke-width="3" fill="none" stroke-linecap="round"/>
  <!-- Saucer -->
  <ellipse cx="29" cy="48" rx="20" ry="4"/>
  <!-- Java text -->
  <text x="32" y="60" text-anchor="middle" font-family="serif" font-weight="bold" font-size="9" fill="white">JAVA</text>
</svg>